<svg xmlns="http://www.w3.org/2000/svg" width="105" height="40" viewBox="0 0 105 40">
    <path fill="#2D2D2D" fill-rule="evenodd" d="M9.618 13.184c-.062 1.458-.678 2.705-1.648 3.73-.797.844-1.746 1.542-2.632 2.3-.077.067-.181.1-.314.171-.008-.15-.018-.255-.017-.36.021-1.8.036-3.6.078-5.4a.923.923 0 0 1 .269-.586c.73-.689 1.556-1.21 2.583-1.356 1.101-.157 1.729.387 1.681 1.501zM7.12 5.868c.582-.029 1 .432.923 1.015-.051.385-.145.816-.369 1.116-.745.999-1.557 1.948-2.346 2.914-.049.06-.124.098-.257.2 0-1.06.022-2.035-.01-3.008-.014-.405-.144-.806-.242-1.318.612-.442 1.383-.873 2.301-.919zm2.306 3.859c-.27.015-.538.07-.888.116.602-.768 1.03-1.526 1.186-2.415.293-1.672-.589-2.969-2.16-3.139a4.762 4.762 0 0 0-2.422.357C3.28 5.444 1.775 6.712.512 8.268c-.246.304-.378.724-.484 1.111-.096.345.06.651.403.818.356.173.673.092.935-.188.339-.36.66-.738.997-1.1.201-.214.42-.413.697-.683-.019.416-.05.727-.043 1.038.089 3.587.18 7.173.284 10.759.008.282-.03.46-.324.563a2.356 2.356 0 0 0-.608.342c-.396.292-.525.647-.378.949.15.308.513.45.97.341.399-.096.806-.19 1.182-.351 3.076-1.32 5.58-3.296 7.049-6.38.725-1.524.928-3.104.116-4.683-.391-.76-1.027-1.124-1.883-1.077zm9.633-.746a2.05 2.05 0 0 1 .415-.556c.575-.565 1.084-.448 1.386.306.491 1.227.065 3.118-.906 4.016-.573.531-1.1.393-1.308-.365-.094-.34-.125-.699-.158-.895.03-.982.217-1.767.57-2.506zm-1.819 4.856c.579 1.051 1.624 1.381 2.652.778.532-.313 1.006-.725 1.506-1.092.051.094.12.244.209.382.329.52.956.741 1.419.508.462-.233.56-.724.355-1.367-.152-.478-.293-.982-.303-1.478-.02-.946.058-1.894.096-2.84.038-.933.1-1.865.108-2.798.003-.398-.161-.763-.605-.885-.371-.102-.73.076-.958.539-.196.398-.318.833-.47 1.246-1.194-.793-2.088-.729-3.1.246a4.029 4.029 0 0 0-.378.434c-.816 1.051-1.03 2.288-1.065 3.57-.026.954.06 1.895.534 2.757zm57.111 5.544c.13-.012.247-.033.365-.033.604-.003 1.208.01 1.812-.003 2.441-.053 3.864 1.695 3.728 4.068-.128 2.237-1.498 3.507-3.737 3.53-.71.006-1.422 0-2.168 0v-7.562zm2.319 10.527c1.38-.013 2.673-.358 3.788-1.195 2.22-1.666 3.035-3.935 2.696-6.634-.4-3.192-2.952-5.552-6.148-5.67-1.824-.068-3.653-.025-5.48-.03-.079 0-.157.025-.257.042v13.462c.101.014.155.028.208.028 1.731.001 3.462.012 5.193-.003zM43.279 6.1v3.06h58.65v27.765H16.124v-7.088h-3.028V40H105V6.1H43.279zm8.284 13.928l.087.005c.51 1.597 1.02 3.194 1.542 4.835H50.02l1.543-4.84zm-3.074 9.596c.19-.515.353-1.04.506-1.568.06-.21.163-.279.378-.278 1.484.008 2.968.01 4.452-.001.24-.002.338.085.402.304.153.527.32 1.05.502 1.568.036.105.165.25.254.252 1.04.017 2.08.011 3.156.011-.03-.138-.04-.232-.07-.319-1.461-4.303-2.927-8.605-4.383-12.91-.082-.242-.204-.313-.445-.31-1.058.01-2.117.018-3.174-.005-.335-.007-.471.104-.577.418-1.43 4.242-2.877 8.479-4.318 12.717-.04.12-.07.245-.118.41 1.085 0 2.101.009 3.116-.013.112-.002.275-.157.32-.276zm17.82-8.494c-.058.863-.612 1.517-1.376 1.618-.109.015-.22.013-.33.013-.697.002-1.396 0-2.147 0v-3.438c.91 0 1.818-.08 2.704.025.73.086 1.206.95 1.15 1.782zm2.95-1.239c-.51-2.002-2.18-3.42-4.237-3.487-1.798-.059-3.6-.022-5.399-.025-.078 0-.156.024-.24.038v13.46h3.067v-4.414c.364 0 .68.023.99-.006.344-.032.54.084.712.397.697 1.263 1.432 2.504 2.14 3.76.123.218.262.31.518.305.865-.015 1.731-.004 2.597-.007.1 0 .202-.023.352-.041l-2.848-4.918c.116-.074.184-.118.254-.161 1.778-1.093 2.583-2.978 2.094-4.9zm-53.61 4.19c.104-.287.303-.542.485-.85l.969.84c-.31.241-.533.473-.805.608-.178.088-.426.036-.643.047-.007-.216-.075-.455-.006-.644zm1.394-5.33c.079-.085.229-.106.346-.156.036.135.142.304.096.4-.23.487-.5.955-.757 1.43l-.164-.07c-.09-.603.054-1.147.479-1.604zm-2.69 4.55c-.175.366-.341.756-.408 1.153-.16.949.388 1.637 1.342 1.766.535.073 1.058.009 1.507-.29a9.69 9.69 0 0 0 1.286-1.02c.225-.214.416-.262.719-.246.41.022.842-.025 1.23-.15.15-.047.304-.412.27-.597-.034-.182-.286-.352-.477-.466-.135-.08-.33-.06-.531-.088.1-.22.186-.376.246-.543.12-.335.28-.67.314-1.015.02-.198-.132-.552-.279-.596-.212-.065-.505.056-.736.159-.116.051-.178.235-.253.365-.205.355-.403.713-.639 1.134l-.883-.825c.394-.51.765-.938 1.073-1.407.252-.386.489-.803.628-1.24.361-1.126-.393-2.17-1.574-2.214-.661-.024-1.198.262-1.616.767-.889 1.07-.835 2.285-.487 3.517.105.37.092.64-.149.938-.223.277-.43.578-.582.898zm12.89 1.139c.127-.01.245-.028.363-.028.728-.002 1.456-.011 2.184.003.804.015 1.306.513 1.318 1.278.013.766-.478 1.295-1.274 1.317-.849.023-1.699.005-2.59.005V24.44zm.009-5.14c.843 0 1.665-.041 2.48.014.541.036.897.575.891 1.167-.006.618-.394 1.133-.995 1.172-.777.05-1.559.013-2.376.013v-2.367zm-3.094 10.59c.13.01.21.022.292.022 1.772.001 3.543.01 5.315-.006a6.23 6.23 0 0 0 1.305-.153c2.56-.579 3.888-3.282 2.687-5.524-.277-.516-.74-.931-1.136-1.414.004-.005.055-.068.11-.128a3.66 3.66 0 0 0-.023-5.003c-.925-.97-2.096-1.307-3.397-1.307-1.58.001-3.159.013-4.738-.009-.383-.005-.446.131-.445.475.01 4.203.007 8.406.008 12.609 0 .144.014.289.022.438zm19.97-10.552v-2.936h-8.35V29.89h8.432v-2.961h-5.346V24.52h4.764v-2.937h-4.765v-2.245h5.264zm-15.48-7.514c.092.357.37.618.794.591.358-.023.686-.356.764-.762.026-.134.022-.274.036-.41.076-.763.036-1.563.259-2.281.348-1.122.873-2.19 1.329-3.278.055-.133.146-.25.284-.48.038.237.067.351.075.467.038.562.032 1.13.115 1.685.126.85.26 1.707.495 2.532.109.383.42.738.715 1.03.404.4 1.051.335 1.447-.07.376-.386.442-1.044.05-1.42-.466-.447-.61-.998-.68-1.587-.12-1.009-.18-2.027-.335-3.03-.093-.6-.23-1.228-.509-1.759-.42-.8-1.38-.846-1.957-.15a5.39 5.39 0 0 0-.634 1.005c-.242.477-.437.977-.657 1.465-.033.073-.089.134-.173.26-.038-.548-.044-1.017-.108-1.478-.07-.514-.17-1.027-.302-1.53-.075-.288-.293-.574-.62-.467-.236.076-.455.317-.597.538-.11.17-.12.423-.12.64.006 2.25.004 4.502.047 6.753.011.581.136 1.17.282 1.736zm62.078 15.058c-1.296.699-3.157.215-3.947-1.028-.108-.17-.207-.347-.321-.54l-2.636 1.528c.32.797.757 1.465 1.386 2.005.955.82 2.086 1.202 3.32 1.298 1.38.107 2.726-.028 3.936-.773 1.347-.83 1.91-2.082 1.832-3.63-.072-1.438-.812-2.452-2.09-3.07-.481-.231-.993-.399-1.492-.59-.907-.349-1.827-.668-2.72-1.05-.393-.168-.578-.548-.518-.992.06-.446.355-.715.768-.822.826-.211 1.622-.146 2.286.443.31.276.556.625.855.97l2.51-1.47c-1.101-2.453-4.056-3.674-6.642-2.788-1.703.583-2.766 1.908-2.858 3.564-.1 1.794.65 3.027 2.414 3.827.671.305 1.404.47 2.099.726.63.232 1.273.447 1.86.763.643.347.59 1.287-.042 1.629zM37.493 6.133c.18.186.352.391.476.616.236.43.06.828-.407.974-.42.131-.774-.015-1.11-.271-.405-.308-.917-.106-.915.399.002.291.155.648.36.859.429.442 1.02.569 1.627.582a2.293 2.293 0 0 0 2.195-3.168c-.297-.747-.803-1.336-1.39-1.867-.203-.184-.419-.359-.602-.562-.526-.582-.43-1.133.259-1.516.24-.133.506-.217.742-.355.371-.217.577-.554.55-.99-.028-.423-.357-.593-.7-.726-.507-.196-1-.104-1.48.107-1.824.804-2.26 3.136-.864 4.672.397.436.848.823 1.259 1.246zM13.915 16.474c.475-.001.906-.417.957-1.116.087-1.202.114-2.41.107-3.615-.003-.543-.006-1.063.222-1.57.44-.975.866-1.958 1.299-2.937.183-.415.39-.82.547-1.244.202-.548-.024-.887-.607-.943-.463-.044-.907.075-1.198.429-.353.43-.654.91-.925 1.398-.21.38-.341.803-.524 1.247-.165-.088-.27-.151-.381-.203-.422-.199-.877-.092-1.146.263-.256.339-.257.65.154 1.016.66.586.873 1.26.627 2.095-.019.066-.023.136-.032.204-.153 1.283-.32 2.566-.059 3.857.146.722.48 1.12.959 1.12zM25.278 3.178c.694-.004 1.204-.533 1.201-1.245-.002-.61-.492-1.125-1.073-1.13-.709-.007-1.228.527-1.224 1.261.003.685.43 1.118 1.096 1.114zm.383 1.125c-.39-.013-.69.236-.808.684-.042.158-.08.323-.083.485-.02 1.55-.054 3.1-.038 4.65.005.586.114 1.173.206 1.755.061.388.327.589.72.61.377.022.69-.101.826-.474.093-.254.175-.528.182-.795.022-.892-.051-4.214-.072-4.981a7.726 7.726 0 0 0-.136-1.225c-.082-.43-.412-.696-.797-.709z"/>
</svg>
